<svg width="32" height="32" viewBox="0 0 32 32" fill="none" xmlns="http://www.w3.org/2000/svg">
<path d="M14.6666 18.3334H16V13.0001M21.3333 12.6668V10.6668M12 22.0001C14 24.0001 18 24.0001 20 22.0001M10.6666 12.6668V10.6668M9.99998 27.8481C8.04931 27.6561 6.73731 27.2214 5.75731 26.2428C4.77731 25.2628 4.34398 23.9494 4.15198 22.0001M9.99998 4.1521C8.04931 4.3441 6.73731 4.77877 5.75731 5.75743C4.77731 6.73743 4.34398 8.05077 4.15198 10.0001M22 4.1521C23.9506 4.3441 25.2626 4.77877 26.2426 5.75743C27.2226 6.73743 27.656 8.05077 27.848 10.0001M22 27.8481C23.9506 27.6561 25.2626 27.2214 26.2426 26.2428C27.2226 25.2628 27.656 23.9494 27.848 22.0001" stroke="white" stroke-width="1.5" stroke-linecap="round" stroke-linejoin="round"/>
</svg>
